<svg xmlns="http://www.w3.org/2000/svg" width="24" height="24" viewBox="0 0 24 24">
  <path d="M811.532,3704.68a12.024,12.024,0,0,0-6.979-7.78,12.086,12.086,0,0,0-4.539-.9v1.47a10.508,10.508,0,0,1,7.451,3.06,10.353,10.353,0,0,1,2.663,4.52,10.471,10.471,0,0,1,.184,5.19,10.275,10.275,0,0,1-2.336,4.64l-2.046-2.01v4.99l5.1,0.08-2.046-2.04A11.937,11.937,0,0,0,811.532,3704.68Zm-21.672,6.28a10.477,10.477,0,0,1-.171-5.19,10.333,10.333,0,0,1,2.349-4.65l2.046,2.03v-5.02l-5.1-.05,2.034,2.02a11.951,11.951,0,0,0,4.433,18.99,11.991,11.991,0,0,0,4.566.91v-1.44A10.609,10.609,0,0,1,789.86,3710.96Z" transform="translate(-788 -3696)"/>
</svg>
