<svg xmlns="http://www.w3.org/2000/svg" width="24" height="20.844" viewBox="0 0 24 20.844">
  <path fill-rule="evenodd" d="M1469.74,86.535a4.139,4.139,0,0,0,7.05,2.89,4.04,4.04,0,0,0,1.21-2.89,0.78,0.78,0,0,0-.12-0.42l-2.59-4.277a0.814,0.814,0,0,0,.51-0.753A1.069,1.069,0,0,0,1475,80h-8V78c0-1.114-2-1.114-2,0v2h-8a1.069,1.069,0,0,0-.8,1.087,0.814,0.814,0,0,0,.51.753l-2.59,4.277a0.782,0.782,0,0,0-.12.42,4.13,4.13,0,0,0,8.26,0,0.782,0.782,0,0,0-.12-0.42L1459,82h6V96h-5c-1.04,0-1.19,2-.16,2h12.32c1.03,0,.88-2-0.16-2h-5V82h6l-3.14,4.117A0.782,0.782,0,0,0,1469.74,86.535Zm-11.61,2.453a2.481,2.481,0,0,1-2.34-1.635h4.67A2.468,2.468,0,0,1,1458.13,88.987Zm1.84-3.269h-3.69l1.85-3.044Zm13.9-3.044,1.85,3.044h-3.69Zm2.34,4.679a2.492,2.492,0,0,1-4.68,0h4.68Z" transform="translate(-1454 -77.156)"/>
</svg>
