<svg xmlns="http://www.w3.org/2000/svg" width="67" height="50" viewBox="0 0 67 50">
  <path fill-rule="evenodd" d="M587.635,1424.22h-1.409v-15.88a5.236,5.236,0,0,0-5.177-5.28H543.456a5.682,5.682,0,0,0-11.216,1.4,5.931,5.931,0,0,0,.112,1.13l-3.413-.25c-0.1,0-.194-0.01-0.29-0.01a3.879,3.879,0,0,0-3.875,3.97v14.92h-1.409a1.39,1.39,0,0,0,0,2.78h64.27A1.39,1.39,0,0,0,587.635,1424.22Zm-4.139-15.88V1417H543.622v-11.15h37.427A2.474,2.474,0,0,1,583.5,1408.34Zm-48.527-3.88a2.962,2.962,0,1,1,5.923,0v1.76l-5.608-.41A3.075,3.075,0,0,1,534.969,1404.46Zm-7.466,4.84a1.141,1.141,0,0,1,1.241-1.18l12.149,0.89v2.67H527.5v-2.38Zm0,5.16h13.39v3.93a1.385,1.385,0,0,0,1.364,1.4H583.5v4.43H527.5v-9.76Zm14.562-19.43a1.413,1.413,0,0,0,.38,1.22,1.337,1.337,0,0,0,1.2.38l3.9-.69a9.6,9.6,0,0,0,4.049.9h0a9.59,9.59,0,0,0,6.883-2.9,10.056,10.056,0,0,0,0-14.03,9.6,9.6,0,0,0-13.768,0,10.015,10.015,0,0,0-1.972,11.14Zm4.578-13.16a6.915,6.915,0,0,1,9.907,0,7.24,7.24,0,0,1,0,10.1,6.9,6.9,0,0,1-8.174,1.29,1.374,1.374,0,0,0-.628-0.15,0.915,0.915,0,0,0-.233.02l-2.43.43,0.421-2.48a1.423,1.423,0,0,0-.133-0.88A7.217,7.217,0,0,1,546.643,1381.87Zm1.9,6.35,1.968-2.16h-0.969a1.39,1.39,0,0,1,0-2.78h4.137c0.025,0,.049.01,0.074,0.01h0.063a0.166,0.166,0,0,0,.069.01c0.021,0.01.043,0.01,0.065,0.02a0.159,0.159,0,0,1,.064.02,14.753,14.753,0,0,1,.127.04l0.06,0.03a0.15,0.15,0,0,1,.062.02,0.2,0.2,0,0,0,.057.04l0.058,0.03c0.019,0.01.038,0.03,0.056,0.04s0.035,0.03.052,0.04,0.038,0.03.056,0.05,0.019,0.01.029,0.02a0.035,0.035,0,0,0,.017.02,0.261,0.261,0,0,0,.05.05,0.252,0.252,0,0,0,.044.05,0.249,0.249,0,0,0,.04.05l0.043,0.06a0.216,0.216,0,0,0,.032.05c0.013,0.02.026,0.05,0.038,0.07s0.018,0.03.028,0.05,0.021,0.05.03,0.07,0.016,0.04.024,0.06,0.016,0.04.023,0.06,0.012,0.05.018,0.07,0.012,0.04.016,0.06,0.009,0.05.012,0.07,0.008,0.05.011,0.07,0,0.04,0,.06,0,0.05,0,.08c0,0.01,0,.01,0,0.02s0,0.03,0,.04c0,0.03,0,.05,0,0.08s0,0.04-.006.06-0.007.05-.011,0.07-0.008.04-.013,0.07-0.011.04-.017,0.06-0.012.05-.02,0.07-0.014.04-.022,0.06-0.017.04-.026,0.06-0.019.04-.029,0.06-0.021.04-.032,0.06-0.022.04-.034,0.06l-0.04.06c-0.012.02-.024,0.03-0.037,0.05s-0.032.04-.048,0.06-0.016.02-.024,0.03l-1.968,2.16h0.968a1.39,1.39,0,0,1,0,2.78h-4.1a0.588,0.588,0,0,1-.132-0.01h-0.049c-0.027-.01-0.054-0.01-0.081-0.02s-0.037-.01-0.055-0.01-0.048-.01-0.072-0.02a0.123,0.123,0,0,1-.055-0.02c-0.023-.01-0.046-0.01-0.068-0.02l-0.053-.03-0.065-.03-0.051-.03a0.2,0.2,0,0,1-.061-0.04l-0.051-.03c-0.018-.01-0.037-0.03-0.055-0.04s-0.033-.03-0.05-0.05-0.021-.01-0.031-0.02-0.011-.01-0.017-0.02a0.261,0.261,0,0,0-.05-0.05,0.252,0.252,0,0,0-.044-0.05,0.249,0.249,0,0,0-.04-0.05l-0.043-.06a0.216,0.216,0,0,0-.032-0.05c-0.013-.02-0.026-0.05-0.038-0.07a0.189,0.189,0,0,1-.028-0.05,0.4,0.4,0,0,1-.03-0.07c-0.009-.02-0.016-0.04-0.024-0.06s-0.016-.04-0.023-0.06-0.012-.05-0.018-0.07-0.012-.04-0.016-0.06-0.009-.05-0.012-0.07-0.008-.05-0.011-0.07,0-.04,0-0.06,0-.05,0-0.08c0-.01,0-0.01,0-0.02s0-.03,0-0.04,0-.05,0-0.08,0-.04.006-0.06,0.007-.05.011-0.07,0.008-.04.013-0.07,0.011-.04.017-0.06,0.012-.04.02-0.07,0.014-.04.022-0.06l0.026-.06c0.009-.02.019-0.04,0.029-0.06s0.021-.04.032-0.06,0.022-.04.034-0.06l0.04-.06c0.012-.02.024-0.03,0.037-0.05l0.049-.06A0.3,0.3,0,0,1,548.548,1388.22Z" transform="translate(-522 -1377)"/>
</svg>
