<svg xmlns="http://www.w3.org/2000/svg" width="61" height="41" viewBox="0 0 61 41">
  <path fill-rule="evenodd" d="M581,1305v-22H522v23a13.516,13.516,0,0,0-1,6.21c0,2.86,2.193,6.88,4.872,6.71L526,1324h3v-5h45v5h3v-5c2.755-.55,5-3.93,5-6.79C582,1310.13,581.715,1306.03,581,1305Zm-3-19v18h-8v-13H533v13h-8v-18h53Zm-11,8v10H553v-10h14Zm-17,0v10H536v-10h14Zm27,22H526c-0.875.02-1.763-3.73-1.753-5.42,0.009-1.61.284-3.46,1.753-3.58h51c1.468,0.12,1.751,2.93,1.751,4.4C578.751,1312.95,578.582,1316,577,1316Z" transform="translate(-521 -1283)"/>
</svg>
