<svg xmlns="http://www.w3.org/2000/svg" width="51" height="50" viewBox="0 0 51 50">
  <path fill-rule="evenodd" d="M169.513,1385H121.487a1.491,1.491,0,0,0-1.487,1.49v47.02a1.491,1.491,0,0,0,1.487,1.49h27.319a1.485,1.485,0,1,0,0-2.97H122.974v-21.66h11.739v8.25a1.487,1.487,0,1,0,2.974,0v-19.13a1.487,1.487,0,1,0-2.974,0v7.91H122.974v-19.43h27.345v10.62a1.491,1.491,0,0,0,1.487,1.49h9.725a1.49,1.49,0,0,0,0-2.98h-8.239v-9.13h14.734v30.17h-13.22a1.485,1.485,0,1,0,0,2.97h13.22v10.92h-9.5a1.485,1.485,0,1,0,0,2.97h10.982a1.491,1.491,0,0,0,1.487-1.49v-47.02A1.49,1.49,0,0,0,169.513,1385Z" transform="translate(-120 -1385)"/>
</svg>
