<svg xmlns="http://www.w3.org/2000/svg" width="23" height="22" viewBox="0 0 23 22">
  <path fill-rule="evenodd" d="M1520,84.524a0.72,0.72,0,0,0-.77-0.638l-6.94-1.011-3.11-6.306a0.691,0.691,0,0,0-1.36,0l-3.11,6.306-6.94,1.011a0.72,0.72,0,0,0-.77.638,1.046,1.046,0,0,0,.34.665l5.04,4.907-1.19,6.931a2.087,2.087,0,0,0-.03.276,0.8,0.8,0,0,0,.15.492,0.489,0.489,0,0,0,.43.2,1.132,1.132,0,0,0,.55-0.166l6.21-3.272,6.21,3.272a1.078,1.078,0,0,0,.55.166,0.565,0.565,0,0,0,.57-0.693,1.816,1.816,0,0,0-.02-0.277l-1.19-6.93,5.02-4.907A1,1,0,0,0,1520,84.524Zm-7.28,4.948,0.99,5.836-5.21-2.759-5.23,2.759,1.01-5.836-4.23-4.117,5.84-.86,2.61-5.295,2.61,5.295,5.84,0.86Z" transform="translate(-1497 -76)"/>
</svg>
