<svg xmlns="http://www.w3.org/2000/svg" width="57" height="58" viewBox="0 0 57 58">
  <defs>
    <style>
      .cls-1 {
        fill-rule: evenodd;
      }
    </style>
  </defs>
  <path class="cls-1" d="M167.657,1275H121.505a1.34,1.34,0,0,0-1.343,1.33v40.68l-6.889,6.85a4.349,4.349,0,0,0,6.172,6.13l0.717-.71v2.39a1.339,1.339,0,0,0,1.343,1.33H156.6a1.347,1.347,0,0,0,.949-0.39l11.058-10.99a1.334,1.334,0,0,0,.394-0.95v-44.34A1.339,1.339,0,0,0,167.657,1275Zm-50.111,53.1a1.689,1.689,0,0,1-2.374,0,1.665,1.665,0,0,1,0-2.36l12.866-12.78,2.373,2.35Zm40.393,0.35-0.006-6.45,6.485,0.01Zm8.376-9.11-9.725-.01h0a1.347,1.347,0,0,0-.949.39,1.328,1.328,0,0,0-.394.94l0.009,9.67H122.848v-3.72l10.412-10.35a1.333,1.333,0,0,0,0-1.89l-1.228-1.22,2.567-2.55a15.791,15.791,0,1,0-5.728-12.14,15.675,15.675,0,0,0,3.818,10.26l-2.556,2.54-1.146-1.14a1.351,1.351,0,0,0-1.9,0l-4.24,4.22v-36.67h43.467v41.67h0Zm-34.758-20.88a13.226,13.226,0,1,1,13.226,13.14A13.2,13.2,0,0,1,131.557,1298.46Zm20.812-1.27H137.33a1.335,1.335,0,1,0,0,2.67h15.039A1.335,1.335,0,1,0,152.369,1297.19Zm0,5.2H137.33a1.335,1.335,0,1,0,0,2.67h15.039A1.335,1.335,0,1,0,152.369,1302.39Zm-9-10.54H137.33a1.335,1.335,0,1,0,0,2.67h6.043A1.335,1.335,0,1,0,143.373,1291.85Zm4.834,0H147.4a1.335,1.335,0,1,0,0,2.67h0.806A1.335,1.335,0,1,0,148.207,1291.85Z" transform="translate(-112 -1275)"/>
</svg>
