<svg xmlns="http://www.w3.org/2000/svg" xmlns:xlink="http://www.w3.org/1999/xlink" width="0" height="0" style="position:absolute">
	
		<symbol id="icon-balance" viewBox="0 0 24 20.844">
			<path fill-rule="evenodd" d="M15.74 9.379a4.139 4.139 0 0 0 7.05 2.89A4.04 4.04 0 0 0 24 9.379a.78.78 0 0 0-.12-.42l-2.59-4.277a.814.814 0 0 0 .51-.753 1.069 1.069 0 0 0-.8-1.085h-8v-2c0-1.114-2-1.114-2 0v2H3a1.069 1.069 0 0 0-.8 1.087.814.814 0 0 0 .51.753L.12 8.961a.782.782 0 0 0-.12.42 4.13 4.13 0 0 0 8.26 0 .782.782 0 0 0-.12-.42L5 4.844h6v14H6c-1.04 0-1.19 2-.16 2h12.32c1.03 0 .88-2-.16-2h-5v-14h6l-3.14 4.117a.782.782 0 0 0-.12.418zM4.13 11.832a2.481 2.481 0 0 1-2.34-1.635h4.67a2.468 2.468 0 0 1-2.33 1.634zm1.84-3.269H2.28l1.85-3.044zm13.9-3.044l1.85 3.044h-3.69zm2.34 4.679a2.492 2.492 0 0 1-4.68 0h4.68z"></path>
		</symbol>
	
		<symbol id="icon-cart" viewBox="0 0 23 21">
			<path fill-rule="evenodd" d="M18.222 15H5.012L3.191 2H0V0h4.885l.567 4H23zm-11.51-2h10.24l3.038-7H5.735zm1.1 4a2 2 0 1 1-1.954 2 1.978 1.978 0 0 1 1.958-2zm7.817 0a2 2 0 1 1-1.955 2 1.978 1.978 0 0 1 1.959-2z"></path>
		</symbol>
	
		<symbol id="icon-cross" viewBox="0 0 27 27">
			<path fill-rule="evenodd" d="M26.993 25.483l-1.416 1.415L13.546 14.87 1.515 26.898.1 25.483l12.031-12.028L.1 1.428 1.515.013l12.031 12.028L25.577.013l1.416 1.415-12.031 12.027 12.031 12.028z"></path>
		</symbol>
	
		<symbol id="icon-hamburger" viewBox="0 0 36 24">
			<path fill-rule="evenodd" d="M0 11h36v2H0v-2zM0 0h36v2H0V0zm0 22h36v2H0v-2z"></path>
		</symbol>
	
		<symbol id="icon-load" viewBox="0 0 24 24">
			<path d="M23.532 8.68A12.024 12.024 0 0 0 16.553.9a12.086 12.086 0 0 0-4.539-.9v1.47a10.508 10.508 0 0 1 7.451 3.06 10.353 10.353 0 0 1 2.663 4.52 10.471 10.471 0 0 1 .184 5.19 10.275 10.275 0 0 1-2.336 4.64l-2.046-2.01v4.99l5.1.08-2.046-2.04a11.937 11.937 0 0 0 2.548-11.22zM1.86 14.96a10.477 10.477 0 0 1-.171-5.19 10.333 10.333 0 0 1 2.349-4.65l2.046 2.03V2.13l-5.1-.05L3.018 4.1a11.951 11.951 0 0 0 4.433 18.99 11.991 11.991 0 0 0 4.566.91v-1.44a10.609 10.609 0 0 1-10.157-7.6z"></path>
		</symbol>
	
		<symbol id="icon-star" viewBox="0 0 23 22">
			<path fill-rule="evenodd" d="M23 8.524a.72.72 0 0 0-.77-.638l-6.94-1.011L12.18.569a.691.691 0 0 0-1.36 0L7.71 6.875.77 7.886a.72.72 0 0 0-.77.638 1.046 1.046 0 0 0 .34.665l5.04 4.907-1.19 6.931a2.087 2.087 0 0 0-.03.276.8.8 0 0 0 .15.492.489.489 0 0 0 .43.2 1.132 1.132 0 0 0 .55-.166l6.21-3.272 6.21 3.272a1.078 1.078 0 0 0 .55.166.565.565 0 0 0 .57-.693 1.816 1.816 0 0 0-.02-.277l-1.19-6.93 5.02-4.907a1 1 0 0 0 .36-.664zm-7.28 4.948l.99 5.836-5.21-2.759-5.23 2.759 1.01-5.836-4.23-4.117 5.84-.86L11.5 3.2l2.61 5.295 5.84.86z"></path>
		</symbol>
	
</svg>
