<svg xmlns="http://www.w3.org/2000/svg" width="57" height="58" viewBox="0 0 57 58">
  <defs>
    <style>
      .cls-1 {
        fill-rule: evenodd;
      }
    </style>
  </defs>
  <path class="cls-1" d="M78.657,1255H32.505a1.339,1.339,0,0,0-1.343,1.33v40.68l-6.889,6.85a4.349,4.349,0,0,0,6.172,6.13l0.717-.71v2.38A1.341,1.341,0,0,0,32.5,1313H67.6a1.347,1.347,0,0,0,.949-0.39l11.058-10.99a1.335,1.335,0,0,0,.393-0.95v-44.34A1.339,1.339,0,0,0,78.657,1255Zm-50.111,53.1a1.688,1.688,0,0,1-2.374,0,1.664,1.664,0,0,1,0-2.36l12.865-12.78,2.374,2.35Zm40.393,0.34L68.933,1302l6.485,0.01Zm8.375-9.1-9.724-.01h0a1.347,1.347,0,0,0-.95.39,1.326,1.326,0,0,0-.393.94l0.009,9.67H33.848v-3.72l10.412-10.35a1.332,1.332,0,0,0,0-1.89l-1.228-1.22,2.568-2.55a15.791,15.791,0,1,0-5.729-12.14,15.674,15.674,0,0,0,3.818,10.26l-2.556,2.54-1.146-1.14a1.351,1.351,0,0,0-1.9,0l-4.24,4.22v-36.67H77.315v41.67h0Zm-34.758-20.88a13.226,13.226,0,1,1,13.226,13.14A13.2,13.2,0,0,1,42.557,1278.46Zm20.813-1.27H48.33a1.335,1.335,0,1,0,0,2.67H63.369A1.335,1.335,0,1,0,63.369,1277.19Zm0,5.2H48.33a1.335,1.335,0,1,0,0,2.67H63.369A1.335,1.335,0,1,0,63.369,1282.39Zm-9-10.54H48.33a1.335,1.335,0,1,0,0,2.67h6.042A1.335,1.335,0,1,0,54.373,1271.85Zm4.834,0H58.4a1.335,1.335,0,1,0,0,2.67h0.806A1.335,1.335,0,1,0,59.207,1271.85Z" transform="translate(-23 -1255)"/>
</svg>
